<svg id="kity_svg_6" xmlns="http://www.w3.org/2000/svg" xmlns:xlink="http://www.w3.org/1999/xlink" version="1.1" width="2398" height="1280" style="background: rgb(251, 251, 251); visibility: visible;" viewBox="0 0 2398 1280"><defs id="kity_defs_7"><linearGradient id="kity_linearGradient_17" x1="0" y1="0" x2="0" y2="1"><stop id="kity_stop_18" offset="0" stop-color="rgb(255, 255, 255)"></stop><stop id="kity_stop_19" offset="1" stop-color="rgb(204, 204, 204)"></stop></linearGradient><marker id="kity_marker_2" orient="auto" refX="6" refY="0" viewBox="-7 -7 14 14" markerWidth="7" markerHeight="7" markerUnits="userSpaceOnUse"><path id="kity_path_3" fill="rgb(115, 161, 191)" stroke="none" d="M6,0A6,6,0,1,1,-6,0A6,6,0,1,1,6,0"></path></marker></defs><g id="kity_g_8"><g id="minder1" text-rendering="geometricPrecision"><g id="minder_connect_group1"><path id="kity_path_31" fill="none" stroke="rgb(115, 161, 191)" stroke-width="1" d="M1199,553.5A184.5,419,0,0,1,1383.5,134.5"></path><path id="kity_path_39" fill="none" stroke="rgb(115, 161, 191)" stroke-width="1" d="M1199,553.5A184.5,71,0,0,1,1383.5,482.5"></path><path id="kity_path_47" fill="none" stroke="rgb(115, 161, 191)" stroke-width="1" d="M1453.5,482.5C1468.5,482.5,1468.5,262.5,1483.5,262.5L1574.5,262.5"></path><path id="kity_path_55" fill="none" stroke="rgb(115, 161, 191)" stroke-width="1" d="M1453.5,482.5C1468.5,482.5,1468.5,314.5,1483.5,314.5L1802.5,314.5"></path><path id="kity_path_63" fill="none" stroke="rgb(115, 161, 191)" stroke-width="1" d="M1453.5,482.5C1468.5,482.5,1468.5,366.5,1483.5,366.5L1634.5,366.5"></path><path id="kity_path_71" fill="none" stroke="rgb(115, 161, 191)" stroke-width="1" d="M1453.5,482.5C1468.5,482.5,1468.5,587.5,1483.5,587.5L1790.5,587.5"></path><path id="kity_path_79" fill="none" stroke="rgb(115, 161, 191)" stroke-width="1" d="M1453.5,482.5C1468.5,482.5,1468.5,730.5,1483.5,730.5L1646.5,730.5"></path><path id="kity_path_87" fill="none" stroke="rgb(115, 161, 191)" stroke-width="1" d="M1199,553.5A184.5,290,0,0,0,1014.5,263.5"></path><path id="kity_path_95" fill="none" stroke="rgb(115, 161, 191)" stroke-width="1" d="M874.5,263.5C859.5,263.5,859.5,197.5,844.5,197.5L614.5,197.5"></path><path id="kity_path_104" fill="none" stroke="rgb(115, 161, 191)" stroke-width="1" d="M874.5,263.5C859.5,263.5,859.5,275.5,844.5,275.5L730.5,275.5"></path><path id="kity_path_112" fill="none" stroke="rgb(115, 161, 191)" stroke-width="1" d="M730.5,275.5C715.5,275.5,715.5,249.5,700.5,249.5L245.5,249.5"></path><path id="kity_path_120" fill="none" stroke="rgb(115, 161, 191)" stroke-width="1" d="M730.5,275.5C715.5,275.5,715.5,301.5,700.5,301.5L550.5,301.5"></path><path id="kity_path_128" fill="none" stroke="rgb(115, 161, 191)" stroke-width="1" d="M874.5,263.5C859.5,263.5,859.5,353.5,844.5,353.5L730.5,353.5"></path><path id="kity_path_136" fill="none" stroke="rgb(115, 161, 191)" stroke-width="1" d="M730.5,353.5C715.5,353.5,715.5,353.5,700.5,353.5L394.5,353.5"></path><path id="kity_path_144" fill="none" stroke="rgb(115, 161, 191)" stroke-width="1" d="M874.5,263.5C859.5,263.5,859.5,405.5,844.5,405.5L726.5,405.5"></path><path id="kity_path_152" fill="none" stroke="rgb(115, 161, 191)" stroke-width="1" d="M726.5,405.5C711.5,405.5,711.5,405.5,696.5,405.5L155.5,405.5"></path><path id="kity_path_160" fill="none" stroke="rgb(115, 161, 191)" stroke-width="1" d="M874.5,263.5C859.5,263.5,859.5,509.5,844.5,509.5L766.5,509.5"></path><path id="kity_path_168" fill="none" stroke="rgb(115, 161, 191)" stroke-width="1" d="M766.5,509.5C751.5,509.5,751.5,457.5,736.5,457.5L418.5,457.5"></path><path id="kity_path_176" fill="none" stroke="rgb(115, 161, 191)" stroke-width="1" d="M766.5,509.5C751.5,509.5,751.5,509.5,736.5,509.5L502.5,509.5"></path><path id="kity_path_184" fill="none" stroke="rgb(115, 161, 191)" stroke-width="1" d="M766.5,509.5C751.5,509.5,751.5,561.5,736.5,561.5L339.5,561.5"></path><path id="kity_path_232" fill="none" stroke="rgb(115, 161, 191)" stroke-width="1" d="M1454.5,134.5C1469.5,134.5,1469.5,96.5,1484.5,96.5L1664.5,96.5"></path><path id="kity_path_240" fill="none" stroke="rgb(115, 161, 191)" stroke-width="1" d="M1454.5,134.5C1469.5,134.5,1469.5,148.5,1484.5,148.5L1586.5,148.5"></path><path id="kity_path_248" fill="none" stroke="rgb(115, 161, 191)" stroke-width="1" d="M1454.5,134.5C1469.5,134.5,1469.5,200.5,1484.5,200.5L1694.5,200.5"></path><path id="kity_path_296" fill="none" stroke="rgb(115, 161, 191)" stroke-width="1" d="M1790.5,587.5C1805.5,587.5,1805.5,496.5,1820.5,496.5L1958.5,496.5"></path><path id="kity_path_298" fill="none" stroke="rgb(115, 161, 191)" stroke-width="1" d="M1958.5,496.5C1973.5,496.5,1973.5,418.5,1988.5,418.5L2253.5,418.5"></path><path id="kity_path_300" fill="none" stroke="rgb(115, 161, 191)" stroke-width="1" d="M1958.5,496.5C1973.5,496.5,1973.5,470.5,1988.5,470.5L2265.5,470.5"></path><path id="kity_path_302" fill="none" stroke="rgb(115, 161, 191)" stroke-width="1" d="M1958.5,496.5C1973.5,496.5,1973.5,522.5,1988.5,522.5L2378.5,522.5"></path><path id="kity_path_304" fill="none" stroke="rgb(115, 161, 191)" stroke-width="1" d="M1958.5,496.5C1973.5,496.5,1973.5,574.5,1988.5,574.5L2354.5,574.5"></path><path id="kity_path_336" fill="none" stroke="rgb(115, 161, 191)" stroke-width="1" d="M1199,553.5A184.5,420,0,0,0,1383.5,973.5"></path><path id="kity_path_344" fill="none" stroke="rgb(115, 161, 191)" stroke-width="1" d="M1513.5,973.5C1528.5,973.5,1528.5,792.5,1543.5,792.5L1862.5,792.5"></path><path id="kity_path_352" fill="none" stroke="rgb(115, 161, 191)" stroke-width="1" d="M1513.5,973.5C1528.5,973.5,1528.5,844.5,1543.5,844.5L1746.5,844.5"></path><path id="kity_path_360" fill="none" stroke="rgb(115, 161, 191)" stroke-width="1" d="M1513.5,973.5C1528.5,973.5,1528.5,896.5,1543.5,896.5L2017.5,896.5"></path><path id="kity_path_368" fill="none" stroke="rgb(115, 161, 191)" stroke-width="1" d="M1513.5,973.5C1528.5,973.5,1528.5,948.5,1543.5,948.5L1722.5,948.5"></path><path id="kity_path_376" fill="none" stroke="rgb(115, 161, 191)" stroke-width="1" d="M1513.5,973.5C1528.5,973.5,1528.5,1000.5,1543.5,1000.5L2137.5,1000.5"></path><path id="kity_path_384" fill="none" stroke="rgb(115, 161, 191)" stroke-width="1" d="M1513.5,973.5C1528.5,973.5,1528.5,1052.5,1543.5,1052.5L1689.5,1052.5"></path><path id="kity_path_392" fill="none" stroke="rgb(115, 161, 191)" stroke-width="1" d="M1513.5,973.5C1528.5,973.5,1528.5,1182.5,1543.5,1182.5L1634.5,1182.5"></path><path id="kity_path_400" fill="none" stroke="rgb(115, 161, 191)" stroke-width="1" d="M1634.5,1182.5C1649.5,1182.5,1649.5,1104.5,1664.5,1104.5L1809.5,1104.5"></path><path id="kity_path_408" fill="none" stroke="rgb(115, 161, 191)" stroke-width="1" d="M1634.5,1182.5C1649.5,1182.5,1649.5,1156.5,1664.5,1156.5L1778.5,1156.5"></path><path id="kity_path_416" fill="none" stroke="rgb(115, 161, 191)" stroke-width="1" d="M1634.5,1182.5C1649.5,1182.5,1649.5,1208.5,1664.5,1208.5L1766.5,1208.5"></path><path id="kity_path_424" fill="none" stroke="rgb(115, 161, 191)" stroke-width="1" d="M1634.5,1182.5C1649.5,1182.5,1649.5,1260.5,1664.5,1260.5L1958.5,1260.5"></path><path id="kity_path_432" fill="none" stroke="rgb(115, 161, 191)" stroke-width="1" d="M1199,553.5A184.5,290,0,0,1,1014.5,843.5"></path><path id="kity_path_440" fill="none" stroke="rgb(115, 161, 191)" stroke-width="1" d="M944.5,843.5C929.5,843.5,929.5,623.5,914.5,623.5L532.5,623.5"></path><path id="kity_path_448" fill="none" stroke="rgb(115, 161, 191)" stroke-width="1" d="M944.5,843.5C929.5,843.5,929.5,675.5,914.5,675.5L484.5,675.5"></path><path id="kity_path_456" fill="none" stroke="rgb(115, 161, 191)" stroke-width="1" d="M944.5,843.5C929.5,843.5,929.5,727.5,914.5,727.5L704.5,727.5"></path><path id="kity_path_464" fill="none" stroke="rgb(115, 161, 191)" stroke-width="1" d="M944.5,843.5C929.5,843.5,929.5,779.5,914.5,779.5L20.5,779.5"></path><path id="kity_path_472" fill="none" stroke="rgb(115, 161, 191)" stroke-width="1" d="M944.5,843.5C929.5,843.5,929.5,831.5,914.5,831.5L480.5,831.5"></path><path id="kity_path_480" fill="none" stroke="rgb(115, 161, 191)" stroke-width="1" d="M944.5,843.5C929.5,843.5,929.5,883.5,914.5,883.5L177.5,883.5"></path><path id="kity_path_488" fill="none" stroke="rgb(115, 161, 191)" stroke-width="1" d="M944.5,843.5C929.5,843.5,929.5,935.5,914.5,935.5L337.5,935.5"></path><path id="kity_path_496" fill="none" stroke="rgb(115, 161, 191)" stroke-width="1" d="M1790.5,587.5C1805.5,587.5,1805.5,626.5,1820.5,626.5L2133.5,626.5"></path><path id="kity_path_504" fill="none" stroke="rgb(115, 161, 191)" stroke-width="1" d="M1790.5,587.5C1805.5,587.5,1805.5,678.5,1820.5,678.5L2102.5,678.5"></path><path id="kity_path_512" fill="none" stroke="rgb(115, 161, 191)" stroke-width="1" d="M944.5,843.5C929.5,843.5,929.5,987.5,914.5,987.5L685.5,987.5"></path><path id="kity_path_520" fill="none" stroke="rgb(115, 161, 191)" stroke-width="1" d="M944.5,843.5C929.5,843.5,929.5,1039.5,914.5,1039.5L793.5,1039.5"></path><path id="kity_path_528" fill="none" stroke="rgb(115, 161, 191)" stroke-width="1" d="M944.5,843.5C929.5,843.5,929.5,1091.5,914.5,1091.5L428.5,1091.5"></path></g><g id="minder_node1"><path id="node_outline1" fill="rgb(115, 161, 191)" stroke="rgb(115, 161, 191)" d="M1137.5,533.5h123a5,5,0,0,1,5,5v30a5,5,0,0,1,-5,5h-123a5,5,0,0,1,-5,-5v-30a5,5,0,0,1,5,-5z" stroke-width="3"></path><g id="node_text1" fill="white"><text id="kity_text_22" text-rendering="inherit" font-size="16" dy=".8em" y="545.5" x="1156.5">OKR 工作法</text></g></g><g id="kity_g_14" display="none"><path id="kity_path_15" fill="rgba(0, 92, 153, 0.5)" stroke="none" d="M1385.5,680.5h68v20h-68z"></path><path id="kity_path_16" fill="none" stroke="rgb(0, 76, 128)" d="M1385.5,680.5L1453.5,680.5" stroke-width="1"></path></g><g id="minder_node2"><g id="node_expander1" style="cursor: pointer;"><path id="kity_path_36" fill="white" stroke="gray" d="M1384.5,134.5A6,6,0,1,1,1372.5,134.5A6,6,0,1,1,1384.5,134.5"></path><path id="kity_path_37" fill="none" stroke="gray" d="M1374,134.5L1383,134.5"></path></g><path id="node_outline2" fill="rgb(238, 243, 246)" stroke="rgb(115, 161, 191)" d="M1388.5,121.5h63a3,3,0,0,1,3,3v20a3,3,0,0,1,-3,3h-63a3,3,0,0,1,-3,-3v-20a3,3,0,0,1,3,-3z" stroke-width="1"></path><g id="node_text2" fill="black"><text id="kity_text_33" text-rendering="inherit" font-size="14" dy=".8em" y="127.5" x="1405.5">OKR</text></g></g><g id="minder_node3"><g id="node_expander2" style="cursor: pointer;"><path id="kity_path_44" fill="white" stroke="gray" d="M1384.5,482.5A6,6,0,1,1,1372.5,482.5A6,6,0,1,1,1384.5,482.5"></path><path id="kity_path_45" fill="none" stroke="gray" d="M1374,482.5L1383,482.5"></path></g><path id="node_outline3" fill="rgb(238, 243, 246)" stroke="rgb(115, 161, 191)" d="M1388.5,469.5h62a3,3,0,0,1,3,3v20a3,3,0,0,1,-3,3h-62a3,3,0,0,1,-3,-3v-20a3,3,0,0,1,3,-3z" stroke-width="1"></path><g id="node_text3" fill="black"><text id="kity_text_41" text-rendering="inherit" font-size="14" dy=".8em" y="475.5" x="1405.5">流程</text></g></g><g id="minder_node4"><g id="node_expander3" style="cursor: pointer;" display="none"><path id="kity_path_52" fill="white" stroke="gray" d="M1493.5,248.5A6,6,0,1,1,1481.5,248.5A6,6,0,1,1,1493.5,248.5"></path><path id="kity_path_53" fill="none" stroke="gray"></path></g><path id="node_outline4" fill="none" stroke="none" d="M1498.5,237.5h71a5,5,0,0,1,5,5v12a5,5,0,0,1,-5,5h-71a5,5,0,0,1,-5,-5v-12a5,5,0,0,1,5,-5z" stroke-width="3"></path><g id="node_text4" fill="black"><text id="kity_text_49" text-rendering="inherit" font-size="12" dy=".8em" y="242.5" x="1503.5">1. 确定目标</text></g></g><g id="minder_node5"><g id="node_expander4" style="cursor: pointer;" display="none"><path id="kity_path_60" fill="white" stroke="gray" d="M1493.5,300.5A6,6,0,1,1,1481.5,300.5A6,6,0,1,1,1493.5,300.5"></path><path id="kity_path_61" fill="none" stroke="gray" d="M1483,300.5L1492,300.5"></path></g><path id="node_outline5" fill="none" stroke="none" d="M1498.5,289.5h299a5,5,0,0,1,5,5v12a5,5,0,0,1,-5,5h-299a5,5,0,0,1,-5,-5v-12a5,5,0,0,1,5,-5z" stroke-width="3"></path><g id="node_text5" fill="black"><text id="kity_text_57" text-rendering="inherit" font-size="12" dy=".8em" y="294.5" x="1503.5">2. 团队所有成员讨论并确定有挑战、可衡量的关键结果</text></g></g><g id="minder_node6"><g id="node_expander5" style="cursor: pointer;" display="none"><path id="kity_path_68" fill="white" stroke="gray" d="M1493.5,352.5A6,6,0,1,1,1481.5,352.5A6,6,0,1,1,1493.5,352.5"></path><path id="kity_path_69" fill="none" stroke="gray"></path></g><path id="node_outline6" fill="none" stroke="none" d="M1498.5,341.5h131a5,5,0,0,1,5,5v12a5,5,0,0,1,-5,5h-131a5,5,0,0,1,-5,-5v-12a5,5,0,0,1,5,-5z" stroke-width="3"></path><g id="node_text6" fill="black"><text id="kity_text_65" text-rendering="inherit" font-size="12" dy=".8em" y="346.5" x="1503.5">3. 制定未来四周的计划</text></g></g><g id="minder_node7"><g id="node_expander6" style="cursor: pointer;"><path id="kity_path_76" fill="white" stroke="gray" d="M1493.5,573.5A6,6,0,1,1,1481.5,573.5A6,6,0,1,1,1493.5,573.5"></path><path id="kity_path_77" fill="none" stroke="gray" d="M1483,573.5L1492,573.5"></path></g><path id="node_outline7" fill="none" stroke="none" d="M1498.5,562.5h287a5,5,0,0,1,5,5v12a5,5,0,0,1,-5,5h-287a5,5,0,0,1,-5,-5v-12a5,5,0,0,1,5,-5z" stroke-width="3"></path><g id="node_text7" fill="black"><text id="kity_text_73" text-rendering="inherit" font-size="12" dy=".8em" y="567.5" x="1503.5">4. 每周一，团队一起开会盘复盘调整，明确本周计划</text></g></g><g id="minder_node8"><g id="node_expander7" style="cursor: pointer;" display="none"><path id="kity_path_84" fill="white" stroke="gray" d="M1493.5,716.5A6,6,0,1,1,1481.5,716.5A6,6,0,1,1,1493.5,716.5"></path><path id="kity_path_85" fill="none" stroke="gray"></path></g><path id="node_outline8" fill="none" stroke="none" d="M1498.5,705.5h143a5,5,0,0,1,5,5v12a5,5,0,0,1,-5,5h-143a5,5,0,0,1,-5,-5v-12a5,5,0,0,1,5,-5z" stroke-width="3"></path><g id="node_text8" fill="black"><text id="kity_text_81" text-rendering="inherit" font-size="12" dy=".8em" y="710.5" x="1503.5">5. 每周五展示本周的成果</text></g></g><g id="minder_node9"><g id="node_expander8" style="cursor: pointer;"><path id="kity_path_92" fill="white" stroke="gray" d="M1025.5,263.5A6,6,0,1,1,1013.5,263.5A6,6,0,1,1,1025.5,263.5"></path><path id="kity_path_93" fill="none" stroke="gray" d="M1015,263.5L1024,263.5"></path></g><path id="node_outline9" fill="rgb(238, 243, 246)" stroke="rgb(115, 161, 191)" d="M877.5,250.5h132a3,3,0,0,1,3,3v20a3,3,0,0,1,-3,3h-132a3,3,0,0,1,-3,-3v-20a3,3,0,0,1,3,-3z" stroke-width="1"></path><g id="node_text9" fill="black"><text id="kity_text_89" text-rendering="inherit" font-size="14" dy=".8em" y="256.5" x="894.5">四象限展现形式</text></g></g><g id="minder_node10"><g id="node_expander9" style="cursor: pointer;" display="none"><path id="kity_path_100" fill="white" stroke="gray" d="M846.5,107.5A6,6,0,1,1,834.5,107.5A6,6,0,1,1,846.5,107.5"></path><path id="kity_path_101" fill="none" stroke="gray"></path></g><path id="node_outline10" fill="none" stroke="none" d="M619.5,20.5h210a5,5,0,0,1,5,5v164a5,5,0,0,1,-5,5h-210a5,5,0,0,1,-5,-5v-164a5,5,0,0,1,5,-5z" stroke-width="3"></path><g id="node_text10" fill="black"><text id="kity_text_97" text-rendering="inherit" font-size="12" dy=".8em" y="177.5" x="723.5"> </text></g><image id="kity_image_102" xlink:href="http://kityminder-img.gz.bcebos.com/4c4b0bd53b1eed8eddf695588916ef8c9ff73172" x="624.5" y="25.5" width="200" height="147" xlink:title="四象限展示形式"></image></g><g id="minder_node11"><g id="node_expander10" style="cursor: pointer;"><path id="kity_path_109" fill="white" stroke="gray" d="M846.5,261.5A6,6,0,1,1,834.5,261.5A6,6,0,1,1,846.5,261.5"></path><path id="kity_path_110" fill="none" stroke="gray" d="M836,261.5L845,261.5"></path></g><path id="node_outline11" fill="none" stroke="none" d="M735.5,250.5h94a5,5,0,0,1,5,5v12a5,5,0,0,1,-5,5h-94a5,5,0,0,1,-5,-5v-12a5,5,0,0,1,5,-5z" stroke-width="3"></path><g id="node_text11" fill="black"><text id="kity_text_106" text-rendering="inherit" font-size="12" dy=".8em" y="255.5" x="740.5">本周关注的任务</text></g></g><g id="minder_node12"><g id="node_expander11" style="cursor: pointer;" display="none"><path id="kity_path_117" fill="white" stroke="gray" d="M702.5,235.5A6,6,0,1,1,690.5,235.5A6,6,0,1,1,702.5,235.5"></path><path id="kity_path_118" fill="none" stroke="gray"></path></g><path id="node_outline12" fill="none" stroke="none" d="M250.5,224.5h435a5,5,0,0,1,5,5v12a5,5,0,0,1,-5,5h-435a5,5,0,0,1,-5,-5v-12a5,5,0,0,1,5,-5z" stroke-width="3"></path><g id="node_text12" fill="black"><text id="kity_text_114" text-rendering="inherit" font-size="12" dy=".8em" y="229.5" x="255.5">列出3-4件最重要的事情，只有本周完成了这几件事情，团队的目标才能向前推进</text></g></g><g id="minder_node13"><g id="node_expander12" style="cursor: pointer;" display="none"><path id="kity_path_125" fill="white" stroke="gray" d="M702.5,287.5A6,6,0,1,1,690.5,287.5A6,6,0,1,1,702.5,287.5"></path><path id="kity_path_126" fill="none" stroke="gray"></path></g><path id="node_outline13" fill="none" stroke="none" d="M555.5,276.5h130a5,5,0,0,1,5,5v12a5,5,0,0,1,-5,5h-130a5,5,0,0,1,-5,-5v-12a5,5,0,0,1,5,-5z" stroke-width="3"></path><g id="node_text13" fill="black"><text id="kity_text_122" text-rendering="inherit" font-size="12" dy=".8em" y="281.5" x="560.5">明确这些事情的优先级</text></g></g><g id="minder_node14"><g id="node_expander13" style="cursor: pointer;"><path id="kity_path_133" fill="white" stroke="gray" d="M846.5,339.5A6,6,0,1,1,834.5,339.5A6,6,0,1,1,846.5,339.5"></path><path id="kity_path_134" fill="none" stroke="gray" d="M836,339.5L845,339.5"></path></g><path id="node_outline14" fill="none" stroke="none" d="M735.5,328.5h94a5,5,0,0,1,5,5v12a5,5,0,0,1,-5,5h-94a5,5,0,0,1,-5,-5v-12a5,5,0,0,1,5,-5z" stroke-width="3"></path><g id="node_text14" fill="black"><text id="kity_text_130" text-rendering="inherit" font-size="12" dy=".8em" y="333.5" x="740.5">未来四周的计划</text></g></g><g id="minder_node15"><g id="node_expander14" style="cursor: pointer;" display="none"><path id="kity_path_141" fill="white" stroke="gray" d="M702.5,339.5A6,6,0,1,1,690.5,339.5A6,6,0,1,1,702.5,339.5"></path><path id="kity_path_142" fill="none" stroke="gray"></path></g><path id="node_outline15" fill="none" stroke="none" d="M399.5,328.5h286a5,5,0,0,1,5,5v12a5,5,0,0,1,-5,5h-286a5,5,0,0,1,-5,-5v-12a5,5,0,0,1,5,-5z" stroke-width="3"></path><g id="node_text15" fill="black"><text id="kity_text_138" text-rendering="inherit" font-size="12" dy=".8em" y="333.5" x="404.5">列出有哪些事情需要其他团队成员做好准备或支持的</text></g></g><g id="minder_node16"><g id="node_expander15" style="cursor: pointer;"><path id="kity_path_149" fill="white" stroke="gray" d="M846.5,391.5A6,6,0,1,1,834.5,391.5A6,6,0,1,1,846.5,391.5"></path><path id="kity_path_150" fill="none" stroke="gray" d="M836,391.5L845,391.5"></path></g><path id="node_outline16" fill="none" stroke="none" d="M731.5,380.5h98a5,5,0,0,1,5,5v12a5,5,0,0,1,-5,5h-98a5,5,0,0,1,-5,-5v-12a5,5,0,0,1,5,-5z" stroke-width="3"></path><g id="node_text16" fill="black"><text id="kity_text_146" text-rendering="inherit" font-size="12" dy=".8em" y="385.5" x="736.5">OKR 当前的状态</text></g></g><g id="minder_node17"><g id="node_expander16" style="cursor: pointer;" display="none"><path id="kity_path_157" fill="white" stroke="gray" d="M698.5,391.5A6,6,0,1,1,686.5,391.5A6,6,0,1,1,698.5,391.5"></path><path id="kity_path_158" fill="none" stroke="gray"></path></g><path id="node_outline17" fill="none" stroke="none" d="M160.5,380.5h521a5,5,0,0,1,5,5v12a5,5,0,0,1,-5,5h-521a5,5,0,0,1,-5,-5v-12a5,5,0,0,1,5,-5z" stroke-width="3"></path><g id="node_text17" fill="black"><text id="kity_text_154" text-rendering="inherit" font-size="12" dy=".8em" y="385.5" x="165.5">如果你设定的信心指数是 5/10 ，那目前完成的概率是变高了还是变低了，团队一起讨论一下原因</text></g></g><g id="minder_node18"><g id="node_expander17" style="cursor: pointer;"><path id="kity_path_165" fill="white" stroke="gray" d="M846.5,495.5A6,6,0,1,1,834.5,495.5A6,6,0,1,1,846.5,495.5"></path><path id="kity_path_166" fill="none" stroke="gray" d="M836,495.5L845,495.5"></path></g><path id="node_outline18" fill="none" stroke="none" d="M771.5,484.5h58a5,5,0,0,1,5,5v12a5,5,0,0,1,-5,5h-58a5,5,0,0,1,-5,-5v-12a5,5,0,0,1,5,-5z" stroke-width="3"></path><g id="node_text18" fill="black"><text id="kity_text_162" text-rendering="inherit" font-size="12" dy=".8em" y="489.5" x="776.5">状态指标</text></g></g><g id="minder_node19"><g id="node_expander18" style="cursor: pointer;" display="none"><path id="kity_path_173" fill="white" stroke="gray" d="M738.5,443.5A6,6,0,1,1,726.5,443.5A6,6,0,1,1,738.5,443.5"></path><path id="kity_path_174" fill="none" stroke="gray"></path></g><path id="node_outline19" fill="none" stroke="none" d="M423.5,432.5h298a5,5,0,0,1,5,5v12a5,5,0,0,1,-5,5h-298a5,5,0,0,1,-5,-5v-12a5,5,0,0,1,5,-5z" stroke-width="3"></path><g id="node_text19" fill="black"><text id="kity_text_170" text-rendering="inherit" font-size="12" dy=".8em" y="437.5" x="428.5">挑出两个影响目标达成的其他因素，团队需要额外关注</text></g></g><g id="minder_node20"><g id="node_expander19" style="cursor: pointer;" display="none"><path id="kity_path_181" fill="white" stroke="gray" d="M738.5,495.5A6,6,0,1,1,726.5,495.5A6,6,0,1,1,738.5,495.5"></path><path id="kity_path_182" fill="none" stroke="gray"></path></g><path id="node_outline20" fill="none" stroke="none" d="M507.5,484.5h214a5,5,0,0,1,5,5v12a5,5,0,0,1,-5,5h-214a5,5,0,0,1,-5,-5v-12a5,5,0,0,1,5,-5z" stroke-width="3"></path><g id="node_text20" fill="black"><text id="kity_text_178" text-rendering="inherit" font-size="12" dy=".8em" y="489.5" x="512.5">比如客户关系、团队状态、系统状况等</text></g></g><g id="minder_node21"><g id="node_expander20" style="cursor: pointer;" display="none"><path id="kity_path_189" fill="white" stroke="gray" d="M738.5,547.5A6,6,0,1,1,726.5,547.5A6,6,0,1,1,738.5,547.5"></path><path id="kity_path_190" fill="none" stroke="gray"></path></g><path id="node_outline21" fill="none" stroke="none" d="M344.5,536.5h377a5,5,0,0,1,5,5v12a5,5,0,0,1,-5,5h-377a5,5,0,0,1,-5,-5v-12a5,5,0,0,1,5,-5z" stroke-width="3"></path><g id="node_text21" fill="black"><text id="kity_text_186" text-rendering="inherit" font-size="12" dy=".8em" y="541.5" x="349.5">当这些地方发生意外时，马上讨论找出对应方案，确保 OKR 不受影响</text></g></g><g id="minder_node27"><g id="node_expander26" style="cursor: pointer;" display="none"><path id="kity_path_237" fill="white" stroke="gray" d="M1494.5,82.5A6,6,0,1,1,1482.5,82.5A6,6,0,1,1,1494.5,82.5"></path><path id="kity_path_238" fill="none" stroke="gray"></path></g><path id="node_outline27" fill="none" stroke="none" d="M1499.5,71.5h160a5,5,0,0,1,5,5v12a5,5,0,0,1,-5,5h-160a5,5,0,0,1,-5,-5v-12a5,5,0,0,1,5,-5z" stroke-width="3"></path><g id="node_text27" fill="black"><text id="kity_text_234" text-rendering="inherit" font-size="12" dy=".8em" y="76.5" x="1504.5">Objective and Key Results</text></g></g><g id="minder_node28"><g id="node_expander27" style="cursor: pointer;" display="none"><path id="kity_path_245" fill="white" stroke="gray" d="M1494.5,134.5A6,6,0,1,1,1482.5,134.5A6,6,0,1,1,1494.5,134.5"></path><path id="kity_path_246" fill="none" stroke="gray"></path></g><path id="node_outline28" fill="none" stroke="none" d="M1499.5,123.5h82a5,5,0,0,1,5,5v12a5,5,0,0,1,-5,5h-82a5,5,0,0,1,-5,-5v-12a5,5,0,0,1,5,-5z" stroke-width="3"></path><g id="node_text28" fill="black"><text id="kity_text_242" text-rendering="inherit" font-size="12" dy=".8em" y="128.5" x="1504.5">起源于英特尔</text></g></g><g id="minder_node29"><g id="node_expander28" style="cursor: pointer;" display="none"><path id="kity_path_253" fill="white" stroke="gray" d="M1494.5,186.5A6,6,0,1,1,1482.5,186.5A6,6,0,1,1,1494.5,186.5"></path><path id="kity_path_254" fill="none" stroke="gray"></path></g><path id="node_outline29" fill="none" stroke="none" d="M1499.5,175.5h190a5,5,0,0,1,5,5v12a5,5,0,0,1,-5,5h-190a5,5,0,0,1,-5,-5v-12a5,5,0,0,1,5,-5z" stroke-width="3"></path><g id="node_text29" fill="black"><text id="kity_text_250" text-rendering="inherit" font-size="12" dy=".8em" y="180.5" x="1504.5">谷歌、领英等顶级公司的高效秘籍</text></g></g><g id="kity_g_12" display="none"><path id="kity_path_13" fill="none" stroke="rgb(66, 94, 112)" d="M1498.5,755.5h143a5,5,0,0,1,5,5v12a5,5,0,0,1,-5,5h-143a5,5,0,0,1,-5,-5v-12a5,5,0,0,1,5,-5z" stroke-width="5"></path></g><g id="minder_node33"><g id="node_expander32" style="cursor: pointer;"><path id="kity_path_309" fill="white" stroke="gray" d="M1830.5,482.5A6,6,0,1,1,1818.5,482.5A6,6,0,1,1,1830.5,482.5"></path><path id="kity_path_310" fill="none" stroke="gray" d="M1820,482.5L1829,482.5"></path></g><path id="node_outline33" fill="none" stroke="none" d="M1835.5,471.5h118a5,5,0,0,1,5,5v12a5,5,0,0,1,-5,5h-118a5,5,0,0,1,-5,-5v-12a5,5,0,0,1,5,-5z" stroke-width="3"></path><g id="node_text33" fill="black"><text id="kity_text_306" text-rendering="inherit" font-size="12" dy=".8em" y="476.5" x="1840.5">会议讨论问题的技巧</text></g></g><g id="minder_node34"><g id="node_expander33" style="cursor: pointer;" display="none"><path id="kity_path_324" fill="white" stroke="gray" d="M1998.5,404.5A6,6,0,1,1,1986.5,404.5A6,6,0,1,1,1998.5,404.5"></path><path id="kity_path_325" fill="none" stroke="gray"></path></g><path id="node_outline34" fill="none" stroke="none" d="M2003.5,393.5h245a5,5,0,0,1,5,5v12a5,5,0,0,1,-5,5h-245a5,5,0,0,1,-5,-5v-12a5,5,0,0,1,5,-5z"></path><g id="node_text34" fill="black"><text id="kity_text_312" text-rendering="inherit" font-size="12" dy=".8em" y="398.5" x="2008.5">这个优先级列表能确保我们的 OKR 完成吗？</text></g></g><g id="minder_node35"><g id="node_expander34" style="cursor: pointer;" display="none"><path id="kity_path_327" fill="white" stroke="gray" d="M1998.5,456.5A6,6,0,1,1,1986.5,456.5A6,6,0,1,1,1998.5,456.5"></path><path id="kity_path_328" fill="none" stroke="gray"></path></g><path id="node_outline35" fill="none" stroke="none" d="M2003.5,445.5h257a5,5,0,0,1,5,5v12a5,5,0,0,1,-5,5h-257a5,5,0,0,1,-5,-5v-12a5,5,0,0,1,5,-5z"></path><g id="node_text35" fill="black"><text id="kity_text_314" text-rendering="inherit" font-size="12" dy=".8em" y="450.5" x="2008.5">团队的能力可以完成 OKR 吗？谁能帮助我们？</text></g></g><g id="minder_node36"><g id="node_expander35" style="cursor: pointer;" display="none"><path id="kity_path_330" fill="white" stroke="gray" d="M1998.5,508.5A6,6,0,1,1,1986.5,508.5A6,6,0,1,1,1998.5,508.5"></path><path id="kity_path_331" fill="none" stroke="gray"></path></g><path id="node_outline36" fill="none" stroke="none" d="M2003.5,497.5h370a5,5,0,0,1,5,5v12a5,5,0,0,1,-5,5h-370a5,5,0,0,1,-5,-5v-12a5,5,0,0,1,5,-5z"></path><g id="node_text36" fill="black"><text id="kity_text_316" text-rendering="inherit" font-size="12" dy=".8em" y="502.5" x="2008.5">我们准备好新一轮的发力了吗？市场部知道产品部马上要做什么吗？</text></g></g><g id="minder_node37"><g id="node_expander36" style="cursor: pointer;" display="none"><path id="kity_path_333" fill="white" stroke="gray" d="M1998.5,560.5A6,6,0,1,1,1986.5,560.5A6,6,0,1,1,1998.5,560.5"></path><path id="kity_path_334" fill="none" stroke="gray"></path></g><path id="node_outline37" fill="none" stroke="none" d="M2003.5,549.5h346a5,5,0,0,1,5,5v12a5,5,0,0,1,-5,5h-346a5,5,0,0,1,-5,-5v-12a5,5,0,0,1,5,-5z"></path><g id="node_text37" fill="black"><text id="kity_text_318" text-rendering="inherit" font-size="12" dy=".8em" y="554.5" x="2008.5">我们的团队已经筋疲力尽了吗？我们的产品是否存在什么隐患？</text></g></g><g id="minder_node38"><g id="node_expander37" style="cursor: pointer;"><path id="kity_path_341" fill="white" stroke="gray" d="M1384.5,973.5A6,6,0,1,1,1372.5,973.5A6,6,0,1,1,1384.5,973.5"></path><path id="kity_path_342" fill="none" stroke="gray" d="M1374,973.5L1383,973.5"></path></g><path id="node_outline38" fill="rgb(238, 243, 246)" stroke="rgb(115, 161, 191)" d="M1388.5,960.5h122a3,3,0,0,1,3,3v20a3,3,0,0,1,-3,3h-122a3,3,0,0,1,-3,-3v-20a3,3,0,0,1,3,-3z" stroke-width="1"></path><g id="node_text38" fill="black"><text id="kity_text_338" text-rendering="inherit" font-size="14" dy=".8em" y="966.5" x="1405.5">OKR 会议步骤</text></g></g><g id="minder_node39"><g id="node_expander38" style="cursor: pointer;" display="none"><path id="kity_path_349" fill="white" stroke="gray" d="M1553.5,778.5A6,6,0,1,1,1541.5,778.5A6,6,0,1,1,1553.5,778.5"></path><path id="kity_path_350" fill="none" stroke="gray"></path></g><path id="node_outline39" fill="none" stroke="none" d="M1558.5,767.5h299a5,5,0,0,1,5,5v12a5,5,0,0,1,-5,5h-299a5,5,0,0,1,-5,-5v-12a5,5,0,0,1,5,-5z" stroke-width="3"></path><g id="node_text39" fill="black"><text id="kity_text_346" text-rendering="inherit" font-size="12" dy=".8em" y="772.5" x="1563.5">1. 所有员工提交他们认为这个季度公司需要实现的目标</text></g></g><g id="minder_node40"><g id="node_expander39" style="cursor: pointer;" display="none"><path id="kity_path_357" fill="white" stroke="gray" d="M1553.5,830.5A6,6,0,1,1,1541.5,830.5A6,6,0,1,1,1553.5,830.5"></path><path id="kity_path_358" fill="none" stroke="gray"></path></g><path id="node_outline40" fill="none" stroke="none" d="M1558.5,819.5h183a5,5,0,0,1,5,5v12a5,5,0,0,1,-5,5h-183a5,5,0,0,1,-5,-5v-12a5,5,0,0,1,5,-5z" stroke-width="3"></path><g id="node_text40" fill="black"><text id="kity_text_354" text-rendering="inherit" font-size="12" dy=".8em" y="824.5" x="1563.5">2. 管理层用半天的时间讨论 OKR</text></g></g><g id="minder_node41"><g id="node_expander40" style="cursor: pointer;" display="none"><path id="kity_path_365" fill="white" stroke="gray" d="M1553.5,882.5A6,6,0,1,1,1541.5,882.5A6,6,0,1,1,1553.5,882.5"></path><path id="kity_path_366" fill="none" stroke="gray"></path></g><path id="node_outline41" fill="none" stroke="none" d="M1558.5,871.5h454a5,5,0,0,1,5,5v12a5,5,0,0,1,-5,5h-454a5,5,0,0,1,-5,-5v-12a5,5,0,0,1,5,-5z" stroke-width="3"></path><g id="node_text41" fill="black"><text id="kity_text_362" text-rendering="inherit" font-size="12" dy=".8em" y="876.5" x="1563.5">3. 管理层作业：向各自主管的部门介绍公司季度 OKR，并完成每个部门的 OKR 设置</text></g></g><g id="minder_node42"><g id="node_expander41" style="cursor: pointer;" display="none"><path id="kity_path_373" fill="white" stroke="gray" d="M1553.5,934.5A6,6,0,1,1,1541.5,934.5A6,6,0,1,1,1553.5,934.5"></path><path id="kity_path_374" fill="none" stroke="gray"></path></g><path id="node_outline42" fill="none" stroke="none" d="M1558.5,923.5h159a5,5,0,0,1,5,5v12a5,5,0,0,1,-5,5h-159a5,5,0,0,1,-5,-5v-12a5,5,0,0,1,5,-5z" stroke-width="3"></path><g id="node_text42" fill="black"><text id="kity_text_370" text-rendering="inherit" font-size="12" dy=".8em" y="928.5" x="1563.5">4. 首席执行官确认部门 OKR</text></g></g><g id="minder_node43"><g id="node_expander42" style="cursor: pointer;" display="none"><path id="kity_path_381" fill="white" stroke="gray" d="M1553.5,986.5A6,6,0,1,1,1541.5,986.5A6,6,0,1,1,1553.5,986.5"></path><path id="kity_path_382" fill="none" stroke="gray"></path></g><path id="node_outline43" fill="none" stroke="none" d="M1558.5,975.5h574a5,5,0,0,1,5,5v12a5,5,0,0,1,-5,5h-574a5,5,0,0,1,-5,-5v-12a5,5,0,0,1,5,-5z" stroke-width="3"></path><g id="node_text43" fill="black"><text id="kity_text_378" text-rendering="inherit" font-size="12" dy=".8em" y="980.5" x="1563.5">5. 自上而下关联。部门经理在把公司和部门的 OKR 传达给下级子部门时，再用同样的方法制定各自的 OKR</text></g></g><g id="minder_node44"><g id="node_expander43" style="cursor: pointer;" display="none"><path id="kity_path_389" fill="white" stroke="gray" d="M1553.5,1038.5A6,6,0,1,1,1541.5,1038.5A6,6,0,1,1,1553.5,1038.5"></path><path id="kity_path_390" fill="none" stroke="gray"></path></g><path id="node_outline44" fill="none" stroke="none" d="M1558.5,1027.5h126a5,5,0,0,1,5,5v12a5,5,0,0,1,-5,5h-126a5,5,0,0,1,-5,-5v-12a5,5,0,0,1,5,-5z" stroke-width="3"></path><g id="node_text44" fill="black"><text id="kity_text_386" text-rendering="inherit" font-size="12" dy=".8em" y="1032.5" x="1563.5">6. 个人 OKR （可选）</text></g></g><g id="minder_node45"><g id="node_expander44" style="cursor: pointer;"><path id="kity_path_397" fill="white" stroke="gray" d="M1553.5,1168.5A6,6,0,1,1,1541.5,1168.5A6,6,0,1,1,1553.5,1168.5"></path><path id="kity_path_398" fill="none" stroke="gray" d="M1543,1168.5L1552,1168.5"></path></g><path id="node_outline45" fill="none" stroke="none" d="M1558.5,1157.5h71a5,5,0,0,1,5,5v12a5,5,0,0,1,-5,5h-71a5,5,0,0,1,-5,-5v-12a5,5,0,0,1,5,-5z" stroke-width="3"></path><g id="node_text45" fill="black"><text id="kity_text_394" text-rendering="inherit" font-size="12" dy=".8em" y="1162.5" x="1563.5">7. 全体会议</text></g></g><g id="minder_node46"><g id="node_expander45" style="cursor: pointer;" display="none"><path id="kity_path_405" fill="white" stroke="gray" d="M1674.5,1090.5A6,6,0,1,1,1662.5,1090.5A6,6,0,1,1,1674.5,1090.5"></path><path id="kity_path_406" fill="none" stroke="gray"></path></g><path id="node_outline46" fill="none" stroke="none" d="M1679.5,1079.5h125a5,5,0,0,1,5,5v12a5,5,0,0,1,-5,5h-125a5,5,0,0,1,-5,-5v-12a5,5,0,0,1,5,-5z" stroke-width="3"></path><g id="node_text46" fill="black"><text id="kity_text_402" text-rendering="inherit" font-size="12" dy=".8em" y="1084.5" x="1684.5">解释季度 OKR 是什么</text></g></g><g id="minder_node47"><g id="node_expander46" style="cursor: pointer;" display="none"><path id="kity_path_413" fill="white" stroke="gray" d="M1674.5,1142.5A6,6,0,1,1,1662.5,1142.5A6,6,0,1,1,1674.5,1142.5"></path><path id="kity_path_414" fill="none" stroke="gray"></path></g><path id="node_outline47" fill="none" stroke="none" d="M1679.5,1131.5h94a5,5,0,0,1,5,5v12a5,5,0,0,1,-5,5h-94a5,5,0,0,1,-5,-5v-12a5,5,0,0,1,5,-5z" stroke-width="3"></path><g id="node_text47" fill="black"><text id="kity_text_410" text-rendering="inherit" font-size="12" dy=".8em" y="1136.5" x="1684.5">为什么这样设置</text></g></g><g id="minder_node48"><g id="node_expander47" style="cursor: pointer;" display="none"><path id="kity_path_421" fill="white" stroke="gray" d="M1674.5,1194.5A6,6,0,1,1,1662.5,1194.5A6,6,0,1,1,1674.5,1194.5"></path><path id="kity_path_422" fill="none" stroke="gray"></path></g><path id="node_outline48" fill="none" stroke="none" d="M1679.5,1183.5h82a5,5,0,0,1,5,5v12a5,5,0,0,1,-5,5h-82a5,5,0,0,1,-5,-5v-12a5,5,0,0,1,5,-5z" stroke-width="3"></path><g id="node_text48" fill="black"><text id="kity_text_418" text-rendering="inherit" font-size="12" dy=".8em" y="1188.5" x="1684.5">示范任务拆解</text></g></g><g id="minder_node49"><g id="node_expander48" style="cursor: pointer;" display="none"><path id="kity_path_429" fill="white" stroke="gray" d="M1674.5,1246.5A6,6,0,1,1,1662.5,1246.5A6,6,0,1,1,1674.5,1246.5"></path><path id="kity_path_430" fill="none" stroke="gray"></path></g><path id="node_outline49" fill="none" stroke="none" d="M1679.5,1235.5h274a5,5,0,0,1,5,5v12a5,5,0,0,1,-5,5h-274a5,5,0,0,1,-5,-5v-12a5,5,0,0,1,5,-5z" stroke-width="3"></path><g id="node_text49" fill="black"><text id="kity_text_426" text-rendering="inherit" font-size="12" dy=".8em" y="1240.5" x="1684.5">会议要制造积极气氛，让员工明白后立即付诸行动</text></g></g><g id="minder_node50"><g id="node_expander49" style="cursor: pointer;"><path id="kity_path_437" fill="white" stroke="gray" d="M1025.5,843.5A6,6,0,1,1,1013.5,843.5A6,6,0,1,1,1025.5,843.5"></path><path id="kity_path_438" fill="none" stroke="gray" d="M1015,843.5L1024,843.5"></path></g><path id="node_outline50" fill="rgb(238, 243, 246)" stroke="rgb(115, 161, 191)" d="M947.5,830.5h62a3,3,0,0,1,3,3v20a3,3,0,0,1,-3,3h-62a3,3,0,0,1,-3,-3v-20a3,3,0,0,1,3,-3z" stroke-width="1"></path><g id="node_text50" fill="black"><text id="kity_text_434" text-rendering="inherit" font-size="14" dy=".8em" y="836.5" x="964.5">建议</text></g></g><g id="minder_node51"><g id="node_expander50" style="cursor: pointer;" display="none"><path id="kity_path_445" fill="white" stroke="gray" d="M916.5,609.5A6,6,0,1,1,904.5,609.5A6,6,0,1,1,916.5,609.5"></path><path id="kity_path_446" fill="none" stroke="gray"></path></g><path id="node_outline51" fill="none" stroke="none" d="M537.5,598.5h362a5,5,0,0,1,5,5v12a5,5,0,0,1,-5,5h-362a5,5,0,0,1,-5,-5v-12a5,5,0,0,1,5,-5z" stroke-width="3"></path><g id="node_text51" fill="black"><text id="kity_text_442" text-rendering="inherit" font-size="12" dy=".8em" y="603.5" x="542.5">只设置一个公司级别的 OKR，除非公司有多条业务线。这就是聚焦</text></g></g><g id="minder_node52"><g id="node_expander51" style="cursor: pointer;" display="none"><path id="kity_path_453" fill="white" stroke="gray" d="M916.5,661.5A6,6,0,1,1,904.5,661.5A6,6,0,1,1,916.5,661.5"></path><path id="kity_path_454" fill="none" stroke="gray"></path></g><path id="node_outline52" fill="none" stroke="none" d="M489.5,650.5h410a5,5,0,0,1,5,5v12a5,5,0,0,1,-5,5h-410a5,5,0,0,1,-5,-5v-12a5,5,0,0,1,5,-5z" stroke-width="3"></path><g id="node_text52" fill="black"><text id="kity_text_450" text-rendering="inherit" font-size="12" dy=".8em" y="655.5" x="494.5">给自己三个月的时间去挑战 OKR，一周内可以完成的目标绝对称不上有挑战</text></g></g><g id="minder_node53"><g id="node_expander52" style="cursor: pointer;" display="none"><path id="kity_path_461" fill="white" stroke="gray" d="M916.5,713.5A6,6,0,1,1,904.5,713.5A6,6,0,1,1,916.5,713.5"></path><path id="kity_path_462" fill="none" stroke="gray"></path></g><path id="node_outline53" fill="none" stroke="none" d="M709.5,702.5h190a5,5,0,0,1,5,5v12a5,5,0,0,1,-5,5h-190a5,5,0,0,1,-5,-5v-12a5,5,0,0,1,5,-5z" stroke-width="3"></path><g id="node_text53" fill="black"><text id="kity_text_458" text-rendering="inherit" font-size="12" dy=".8em" y="707.5" x="714.5">目标里不要有传统的绩效考核指标</text></g></g><g id="minder_node54"><g id="node_expander53" style="cursor: pointer;" display="none"><path id="kity_path_469" fill="white" stroke="gray" d="M916.5,765.5A6,6,0,1,1,904.5,765.5A6,6,0,1,1,916.5,765.5"></path><path id="kity_path_470" fill="none" stroke="gray"></path></g><path id="node_outline54" fill="none" stroke="none" d="M25.5,754.5h874a5,5,0,0,1,5,5v12a5,5,0,0,1,-5,5h-874a5,5,0,0,1,-5,-5v-12a5,5,0,0,1,5,-5z" stroke-width="3"></path><g id="node_text54" fill="black"><text id="kity_text_466" text-rendering="inherit" font-size="12" dy=".8em" y="759.5" x="30.5">在每周盘点进度时，先从公司 OKR 开始，然后沟通部门级别的，不需要在会议上沟通个人的 OKR，个人 OKR 只要一对一交流就可以了。每周必须确认 OKR 的进度</text></g></g><g id="minder_node55"><g id="node_expander54" style="cursor: pointer;" display="none"><path id="kity_path_477" fill="white" stroke="gray" d="M916.5,817.5A6,6,0,1,1,904.5,817.5A6,6,0,1,1,916.5,817.5"></path><path id="kity_path_478" fill="none" stroke="gray"></path></g><path id="node_outline55" fill="none" stroke="none" d="M485.5,806.5h414a5,5,0,0,1,5,5v12a5,5,0,0,1,-5,5h-414a5,5,0,0,1,-5,-5v-12a5,5,0,0,1,5,-5z" stroke-width="3"></path><g id="node_text55" fill="black"><text id="kity_text_474" text-rendering="inherit" font-size="12" dy=".8em" y="811.5" x="490.5">OKR 是自上而下关联的。先设定公司的 OKR，然后是部门的，最后是个人的</text></g></g><g id="minder_node56"><g id="node_expander55" style="cursor: pointer;" display="none"><path id="kity_path_485" fill="white" stroke="gray" d="M916.5,869.5A6,6,0,1,1,904.5,869.5A6,6,0,1,1,916.5,869.5"></path><path id="kity_path_486" fill="none" stroke="gray"></path></g><path id="node_outline56" fill="none" stroke="none" d="M182.5,858.5h717a5,5,0,0,1,5,5v12a5,5,0,0,1,-5,5h-717a5,5,0,0,1,-5,-5v-12a5,5,0,0,1,5,-5z" stroke-width="3"></path><g id="node_text56" fill="black"><text id="kity_text_482" text-rendering="inherit" font-size="12" dy=".8em" y="863.5" x="187.5">OKR 不是唯一一件你需要做的事，而是你必须要做的一件事。要相信大家可以保证事情顺利进行，不要把每个任务都塞进你的 OKR 里</text></g></g><g id="minder_node57"><g id="node_expander56" style="cursor: pointer;" display="none"><path id="kity_path_493" fill="white" stroke="gray" d="M916.5,921.5A6,6,0,1,1,904.5,921.5A6,6,0,1,1,916.5,921.5"></path><path id="kity_path_494" fill="none" stroke="gray"></path></g><path id="node_outline57" fill="none" stroke="none" d="M342.5,910.5h557a5,5,0,0,1,5,5v12a5,5,0,0,1,-5,5h-557a5,5,0,0,1,-5,-5v-12a5,5,0,0,1,5,-5z" stroke-width="3"></path><g id="node_text57" fill="black"><text id="kity_text_490" text-rendering="inherit" font-size="12" dy=".8em" y="915.5" x="347.5">周一的 OKR 进度确认是一次谈话，而不是汇报或指示。务必要讨论信心指数、状态指标和优先级的变化</text></g></g><g id="minder_node58"><g id="node_expander57" style="cursor: pointer;" display="none"><path id="kity_path_501" fill="white" stroke="gray" d="M1830.5,612.5A6,6,0,1,1,1818.5,612.5A6,6,0,1,1,1830.5,612.5"></path><path id="kity_path_502" fill="none" stroke="gray"></path></g><path id="node_outline58" fill="none" stroke="none" d="M1835.5,601.5h293a5,5,0,0,1,5,5v12a5,5,0,0,1,-5,5h-293a5,5,0,0,1,-5,-5v-12a5,5,0,0,1,5,-5z" stroke-width="3"></path><g id="node_text58" fill="black"><text id="kity_text_498" text-rendering="inherit" font-size="12" dy=".8em" y="606.5" x="1840.5">周一的 OKR 进度确认是一次谈话，而不是汇报或指示</text></g></g><g id="minder_node59"><g id="node_expander58" style="cursor: pointer;" display="none"><path id="kity_path_509" fill="white" stroke="gray" d="M1830.5,664.5A6,6,0,1,1,1818.5,664.5A6,6,0,1,1,1830.5,664.5"></path><path id="kity_path_510" fill="none" stroke="gray"></path></g><path id="node_outline59" fill="none" stroke="none" d="M1835.5,653.5h262a5,5,0,0,1,5,5v12a5,5,0,0,1,-5,5h-262a5,5,0,0,1,-5,-5v-12a5,5,0,0,1,5,-5z" stroke-width="3"></path><g id="node_text59" fill="black"><text id="kity_text_506" text-rendering="inherit" font-size="12" dy=".8em" y="658.5" x="1840.5">务必要讨论信心指数、状态指标和优先级的变化</text></g></g><g id="minder_node60"><g id="node_expander59" style="cursor: pointer;" display="none"><path id="kity_path_517" fill="white" stroke="gray" d="M916.5,973.5A6,6,0,1,1,904.5,973.5A6,6,0,1,1,916.5,973.5"></path><path id="kity_path_518" fill="none" stroke="gray"></path></g><path id="node_outline60" fill="none" stroke="none" d="M690.5,962.5h209a5,5,0,0,1,5,5v12a5,5,0,0,1,-5,5h-209a5,5,0,0,1,-5,-5v-12a5,5,0,0,1,5,-5z" stroke-width="3"></path><g id="node_text60" fill="black"><text id="kity_text_514" text-rendering="inherit" font-size="12" dy=".8em" y="967.5" x="695.5">鼓励员工对公司 OKR 提出意见和建议</text></g></g><g id="minder_node61"><g id="node_expander60" style="cursor: pointer;" display="none"><path id="kity_path_525" fill="white" stroke="gray" d="M916.5,1025.5A6,6,0,1,1,904.5,1025.5A6,6,0,1,1,916.5,1025.5"></path><path id="kity_path_526" fill="none" stroke="gray"></path></g><path id="node_outline61" fill="none" stroke="none" d="M798.5,1014.5h101a5,5,0,0,1,5,5v12a5,5,0,0,1,-5,5h-101a5,5,0,0,1,-5,-5v-12a5,5,0,0,1,5,-5z" stroke-width="3"></path><g id="node_text61" fill="black"><text id="kity_text_522" text-rendering="inherit" font-size="12" dy=".8em" y="1019.5" x="803.5">把 OKR 公之于众</text></g></g><g id="minder_node62"><g id="node_expander61" style="cursor: pointer;" display="none"><path id="kity_path_533" fill="white" stroke="gray" d="M916.5,1077.5A6,6,0,1,1,904.5,1077.5A6,6,0,1,1,916.5,1077.5"></path><path id="kity_path_534" fill="none" stroke="gray"></path></g><path id="node_outline62" fill="none" stroke="none" d="M433.5,1066.5h466a5,5,0,0,1,5,5v12a5,5,0,0,1,-5,5h-466a5,5,0,0,1,-5,-5v-12a5,5,0,0,1,5,-5z" stroke-width="3"></path><g id="node_text62" fill="black"><text id="kity_text_530" text-rendering="inherit" font-size="12" dy=".8em" y="1071.5" x="438.5">周五的庆祝活动对于周一严酷的业务来说是一种调剂，可以让团队保持乐观积极的态度</text></g></g></g></g></svg>